# xmcd
#
# Track frame offsets:
#	150
#	18495
#	37315
#	53977
#	70670
#	86004
#	102757
#	120115
#	140187
#	158530
#	177367
#	194047
#	210655
#	226012
#	242750
#	260134
#	291617
#
# Disc length: 3900 seconds
#
# Revision: 1
# Processed by: cddbd v1.5.1PL2 Copyright (c) Steve Scherf et al.
# Submitted via: audiograbber 1.83.01
#
DISCID=fc0f3a11
DTITLE=Sound Choice - SC3245
DYEAR=1900
DGENRE=Karaoke Country
TTITLE0=Nickel Creek - When You Come Back Down
TTITLE1=Montgomery Gentry - She Couldn'T Change Me
TTITLE2=Collin Raye - You Still Take Me There
TTITLE3=The Wilkinsons - 1999
TTITLE4=L Morgan and Sammy Kershaw - He Drinks Tequila
TTITLE5=Mark Mcguinn - Mrs. Steven Rudy
TTITLE6=South 65 - The Most Beautiful Girl
TTITLE7=Sara Evans - I Could Not Ask For More
TTITLE8=Nickel Creek - She Couldn'T Change Me
TTITLE9=Montgomery Gentry - When You Come Back Down
TTITLE10=Collin Raye - You Still Take Me There
TTITLE11=The Wilkinsons - 1999
TTITLE12=L Morgan and Sammy Kershaw - He Drinks Tequila
TTITLE13=Mark Mcguinn - Mrs. Steven Rudy
TTITLE14=South 65 - The Most Beautiful Girl
TTITLE15=Sara Evans - I Could Not Ask For More
TTITLE16=Must Specify An Artist - Data Track
EXTD=Tracks 9-16 Demos
EXTT0=
EXTT1=
EXTT2=
EXTT3=
EXTT4=
EXTT5=
EXTT6=
EXTT7=
EXTT8=
EXTT9=
EXTT10=
EXTT11=
EXTT12=
EXTT13=
EXTT14=
EXTT15=
EXTT16=
PLAYORDER=
